<?xml version="1.0" encoding="utf-8"?>
<!-- Generator: Adobe Illustrator 18.1.1, SVG Export Plug-In . SVG Version: 6.00 Build 0)  -->
<svg version="1.1" id="Layer_1" xmlns="http://www.w3.org/2000/svg" xmlns:xlink="http://www.w3.org/1999/xlink" x="0px" y="0px"
	 viewBox="0 0 116.25 116.25" enable-background="new 0 0 116.25 116.25" xml:space="preserve">
<path fill="#41C442" d="M57.943,1.782c-31.169,0-56.436,25.267-56.436,56.436s25.267,56.436,56.436,56.436
	c31.169,0,56.436-25.267,56.436-56.436S89.112,1.782,57.943,1.782z M57.943,110.045c-28.623,0-51.827-23.204-51.827-51.827
	c0-28.623,23.204-51.827,51.827-51.827c28.623,0,51.827,23.204,51.827,51.827C109.771,86.842,86.567,110.045,57.943,110.045z"/>
<g>
	<polygon fill="#808285" points="69.35,74.712 64.259,67.77 60.124,79.278 	"/>
	<g>
		<polygon fill="#58595B" points="23.333,34.013 33.631,39.953 39.641,34.013 		"/>
		<polygon fill="#414042" points="23.333,34.013 27.923,47.005 33.631,39.953 		"/>
		<polygon fill="#808285" points="33.631,39.953 39.641,34.013 42.833,43.06 		"/>
		<polygon fill="#939598" points="33.631,39.953 36.628,47.905 42.833,43.06 		"/>
		<polygon fill="#58595B" points="27.923,47.005 36.628,47.905 33.631,39.953 		"/>
		<polygon fill="#414042" points="27.923,47.005 30.02,52.72 36.628,47.905 		"/>
		<polygon fill="#808285" points="36.628,47.905 42.833,43.06 45.745,51.229 		"/>
		<polygon fill="#58595B" points="36.628,47.905 30.02,52.72 32.652,60.051 		"/>
		<polygon fill="#686868" points="45.745,51.229 48.214,58.218 36.628,47.905 		"/>
		<polygon fill="#737475" points="32.652,60.051 40.604,58.591 36.628,47.905 		"/>
		<polygon fill="#808285" points="48.214,58.218 36.628,47.905 40.604,58.591 		"/>
		<polygon fill="#414042" points="32.652,60.051 40.604,58.591 43.299,66.077 		"/>
		<polygon fill="#58595B" points="32.652,60.051 38.709,77.042 43.299,66.077 		"/>
		<polygon fill="#939598" points="40.604,58.591 48.214,58.218 51.627,67.77 		"/>
		<polygon fill="#808285" points="43.299,66.077 51.627,67.77 40.604,58.591 		"/>
		<polygon fill="#737475" points="38.709,77.042 43.299,66.077 46.537,74.712 		"/>
		<polygon fill="#686868" points="51.627,67.77 46.537,74.712 43.299,66.077 		"/>
		<polygon fill="#808285" points="46.537,74.712 51.627,67.77 55.762,79.278 		"/>
		<polygon fill="#414042" points="38.709,77.042 41.187,84 46.537,74.712 		"/>
		<polygon fill="#58595B" points="49.455,82.661 46.537,74.712 41.187,84 		"/>
		<polygon fill="#686868" points="55.762,79.278 57.813,85.18 46.537,74.712 		"/>
		<polygon fill="#939598" points="49.455,82.661 57.813,85.18 46.537,74.712 		"/>
		<polygon fill="#414042" points="41.187,84 49.455,82.661 51.453,88.055 		"/>
		<polygon fill="#686868" points="49.455,82.661 57.813,85.18 51.453,88.055 		"/>
		<polygon fill="#737475" points="41.187,84 51.453,88.055 44.86,94.281 		"/>
		<polygon fill="#939598" points="57.813,85.18 58.074,93.396 51.453,88.055 		"/>
		<polygon fill="#686868" points="55.553,99.66 58.074,93.396 51.453,88.055 		"/>
		<polygon fill="#808285" points="57.974,105.924 58.074,93.396 55.553,99.66 		"/>
		<polygon fill="#414042" points="44.86,94.281 53.76,94.6 51.453,88.055 		"/>
		<polygon fill="#58595B" points="47.463,101.69 53.76,94.6 44.86,94.281 		"/>
		<polygon fill="#737475" points="56.089,100.898 47.463,101.69 53.76,94.6 		"/>
		<polygon fill="#414042" points="49.053,105.924 56.089,100.898 47.463,101.69 		"/>
		<polygon fill="#58595B" points="57.974,105.924 56.089,100.898 49.053,105.924 		"/>
		<polygon fill="#58595B" points="92.553,34.013 82.256,39.953 76.245,34.013 		"/>
		<polygon fill="#414042" points="92.553,34.013 87.964,47.005 82.256,39.953 		"/>
		<polygon fill="#808285" points="82.256,39.953 76.245,34.013 73.054,43.06 		"/>
		<polygon fill="#939598" points="82.256,39.953 79.258,47.905 73.054,43.06 		"/>
		<polygon fill="#58595B" points="87.964,47.005 79.258,47.905 82.256,39.953 		"/>
		<polygon fill="#414042" points="87.964,47.005 85.867,52.72 79.258,47.905 		"/>
		<polygon fill="#808285" points="79.258,47.905 73.054,43.06 70.142,51.229 		"/>
		<polygon fill="#58595B" points="79.258,47.905 85.867,52.72 83.234,60.051 		"/>
		<polygon fill="#686868" points="70.142,51.229 67.672,58.218 79.258,47.905 		"/>
		<polygon fill="#737475" points="83.234,60.051 75.282,58.591 79.258,47.905 		"/>
		<polygon fill="#808285" points="67.672,58.218 79.258,47.905 75.282,58.591 		"/>
		<polygon fill="#414042" points="83.234,60.051 75.282,58.591 72.588,66.077 		"/>
		<polygon fill="#58595B" points="83.234,60.051 77.177,77.042 72.588,66.077 		"/>
		<polygon fill="#939598" points="75.282,58.591 67.672,58.218 64.259,67.77 		"/>
		<polygon fill="#808285" points="72.588,66.077 64.259,67.77 75.282,58.591 		"/>
		<polygon fill="#737475" points="77.177,77.042 72.588,66.077 69.35,74.712 		"/>
		<polygon fill="#686868" points="64.259,67.77 69.35,74.712 72.588,66.077 		"/>
		<polygon fill="#414042" points="77.177,77.042 74.7,84 69.35,74.712 		"/>
		<polygon fill="#58595B" points="66.432,82.661 69.35,74.712 74.7,84 		"/>
		<polygon fill="#686868" points="60.124,79.278 57.813,85.18 69.35,74.712 		"/>
		<polygon fill="#939598" points="66.432,82.661 57.813,85.18 69.35,74.712 		"/>
		<polygon fill="#414042" points="74.7,84 66.432,82.661 64.433,88.055 		"/>
		<polygon fill="#686868" points="66.432,82.661 57.813,85.18 64.433,88.055 		"/>
		<polygon fill="#737475" points="74.7,84 64.433,88.055 71.027,94.281 		"/>
		<polygon fill="#737475" points="57.813,85.18 58.074,93.396 64.433,88.055 		"/>
		<polygon fill="#686868" points="60.334,99.66 58.074,93.396 64.433,88.055 		"/>
		<polygon fill="#737475" points="57.974,105.924 58.074,93.396 60.334,99.66 		"/>
		<polygon fill="#414042" points="71.027,94.281 62.126,94.6 64.433,88.055 		"/>
		<polygon fill="#58595B" points="68.424,101.69 62.126,94.6 71.027,94.281 		"/>
		<polygon fill="#737475" points="59.798,100.898 68.424,101.69 62.126,94.6 		"/>
		<polygon fill="#414042" points="66.834,105.924 59.798,100.898 68.424,101.69 		"/>
		<polygon fill="#58595B" points="57.974,105.924 59.798,100.898 66.834,105.924 		"/>
	</g>
</g>
<g>
	<polygon fill="#58595B" points="37.286,18.843 43.432,22.388 47.02,18.843 	"/>
	<polygon fill="#414042" points="37.286,18.843 40.026,26.597 43.432,22.388 	"/>
	<polygon fill="#808285" points="43.432,22.388 47.02,18.843 48.925,24.242 	"/>
	<polygon fill="#939598" points="43.432,22.388 45.221,27.135 48.925,24.242 	"/>
	<polygon fill="#58595B" points="40.026,26.597 45.221,27.135 43.432,22.388 	"/>
	<polygon fill="#414042" points="40.026,26.597 41.277,30.008 45.221,27.135 	"/>
	<polygon fill="#808285" points="45.221,27.135 48.925,24.242 50.663,29.118 	"/>
	<polygon fill="#58595B" points="45.221,27.135 41.277,30.008 42.848,34.383 	"/>
	<polygon fill="#686868" points="50.663,29.118 52.137,33.29 45.221,27.135 	"/>
	<polygon fill="#737475" points="42.848,34.383 47.594,33.512 45.221,27.135 	"/>
	<polygon fill="#808285" points="52.137,33.29 45.221,27.135 47.594,33.512 	"/>
	<polygon fill="#414042" points="42.848,34.383 47.594,33.512 49.203,37.98 	"/>
	<polygon fill="#58595B" points="42.848,34.383 46.463,44.525 49.203,37.98 	"/>
	<polygon fill="#939598" points="47.594,33.512 52.137,33.29 54.174,38.991 	"/>
	<polygon fill="#808285" points="49.203,37.98 54.174,38.991 47.594,33.512 	"/>
	<polygon fill="#737475" points="46.463,44.525 49.203,37.98 51.135,43.134 	"/>
	<polygon fill="#686868" points="54.174,38.991 51.135,43.134 49.203,37.98 	"/>
	<polygon fill="#808285" points="51.135,43.134 54.174,38.991 56.642,45.859 	"/>
	<polygon fill="#414042" points="46.463,44.525 47.942,48.677 51.135,43.134 	"/>
	<polygon fill="#58595B" points="52.877,47.879 51.135,43.134 47.942,48.677 	"/>
	<polygon fill="#686868" points="56.642,45.859 57.865,49.382 51.135,43.134 	"/>
	<polygon fill="#939598" points="52.877,47.879 57.865,49.382 51.135,43.134 	"/>
	<polygon fill="#414042" points="47.942,48.677 52.877,47.879 54.07,51.098 	"/>
	<polygon fill="#686868" points="52.877,47.879 57.865,49.382 54.07,51.098 	"/>
	<polygon fill="#737475" points="47.942,48.677 54.07,51.098 50.134,54.814 	"/>
	<polygon fill="#939598" points="57.865,49.382 58.021,54.286 54.07,51.098 	"/>
	<polygon fill="#686868" points="56.517,58.024 58.021,54.286 54.07,51.098 	"/>
	<polygon fill="#808285" points="57.961,61.763 58.021,54.286 56.517,58.024 	"/>
	<polygon fill="#414042" points="50.134,54.814 55.447,55.004 54.07,51.098 	"/>
	<polygon fill="#58595B" points="51.688,59.236 55.447,55.004 50.134,54.814 	"/>
	<polygon fill="#737475" points="56.836,58.763 51.688,59.236 55.447,55.004 	"/>
	<polygon fill="#414042" points="52.637,61.763 56.836,58.763 51.688,59.236 	"/>
	<polygon fill="#58595B" points="57.961,61.763 56.836,58.763 52.637,61.763 	"/>
	<polygon fill="#58595B" points="78.6,18.843 72.454,22.388 68.867,18.843 	"/>
	<polygon fill="#414042" points="78.6,18.843 75.861,26.597 72.454,22.388 	"/>
	<polygon fill="#808285" points="72.454,22.388 68.867,18.843 66.962,24.242 	"/>
	<polygon fill="#939598" points="72.454,22.388 70.665,27.135 66.962,24.242 	"/>
	<polygon fill="#58595B" points="75.861,26.597 70.665,27.135 72.454,22.388 	"/>
	<polygon fill="#414042" points="75.861,26.597 74.61,30.008 70.665,27.135 	"/>
	<polygon fill="#808285" points="70.665,27.135 66.962,24.242 65.224,29.118 	"/>
	<polygon fill="#58595B" points="70.665,27.135 74.61,30.008 73.038,34.383 	"/>
	<polygon fill="#686868" points="65.224,29.118 63.75,33.29 70.665,27.135 	"/>
	<polygon fill="#737475" points="73.038,34.383 68.292,33.512 70.665,27.135 	"/>
	<polygon fill="#808285" points="63.75,33.29 70.665,27.135 68.292,33.512 	"/>
	<polygon fill="#414042" points="73.038,34.383 68.292,33.512 66.684,37.98 	"/>
	<polygon fill="#58595B" points="73.038,34.383 69.423,44.525 66.684,37.98 	"/>
	<polygon fill="#939598" points="68.292,33.512 63.75,33.29 61.713,38.991 	"/>
	<polygon fill="#808285" points="66.684,37.98 61.713,38.991 68.292,33.512 	"/>
	<polygon fill="#737475" points="69.423,44.525 66.684,37.98 64.751,43.134 	"/>
	<polygon fill="#686868" points="61.713,38.991 64.751,43.134 66.684,37.98 	"/>
	<polygon fill="#808285" points="64.751,43.134 61.713,38.991 59.245,45.859 	"/>
	<polygon fill="#414042" points="69.423,44.525 67.945,48.677 64.751,43.134 	"/>
	<polygon fill="#58595B" points="63.01,47.879 64.751,43.134 67.945,48.677 	"/>
	<polygon fill="#686868" points="59.245,45.859 57.865,49.382 64.751,43.134 	"/>
	<polygon fill="#939598" points="63.01,47.879 57.865,49.382 64.751,43.134 	"/>
	<polygon fill="#414042" points="67.945,48.677 63.01,47.879 61.817,51.098 	"/>
	<polygon fill="#686868" points="63.01,47.879 57.865,49.382 61.817,51.098 	"/>
	<polygon fill="#737475" points="67.945,48.677 61.817,51.098 65.752,54.814 	"/>
	<polygon fill="#737475" points="57.865,49.382 58.021,54.286 61.817,51.098 	"/>
	<polygon fill="#686868" points="59.37,58.024 58.021,54.286 61.817,51.098 	"/>
	<polygon fill="#737475" points="57.961,61.763 58.021,54.286 59.37,58.024 	"/>
	<polygon fill="#414042" points="65.752,54.814 60.44,55.004 61.817,51.098 	"/>
	<polygon fill="#58595B" points="64.198,59.236 60.44,55.004 65.752,54.814 	"/>
	<polygon fill="#737475" points="59.05,58.763 64.198,59.236 60.44,55.004 	"/>
	<polygon fill="#414042" points="63.249,61.763 59.05,58.763 64.198,59.236 	"/>
	<polygon fill="#58595B" points="57.961,61.763 59.05,58.763 63.249,61.763 	"/>
</g>
</svg>
